<?xml version="1.0" encoding="utf-8"?>
<!-- Generator: Adobe Illustrator 22.0.0, SVG Export Plug-In . SVG Version: 6.00 Build 0)  -->
<svg version="1.1" id="Camada_1" xmlns="http://www.w3.org/2000/svg" xmlns:xlink="http://www.w3.org/1999/xlink" x="0px" y="0px"
	 viewBox="0 0 900 900" style="enable-background:new 0 0 900 900;" xml:space="preserve">
<style type="text/css">
	.st0{fill:#FFFFFF;}
</style>
<g id="XMLID_569_">
	<g id="XMLID_570_">
		<path id="XMLID_605_" class="st0" d="M242.1,378.2h30c2.7,10.4,12.2,18.1,23.4,18.1c13.4,0,24.3-10.9,24.3-24.3
			c0-11.3-7.7-20.7-18.1-23.4v-29.8c10.4-2.7,18.1-12.2,18.1-23.4c0-13.4-10.9-24.3-24.3-24.3s-24.3,10.9-24.3,24.3
			c0,11.3,7.7,20.7,18.1,23.4v29.8c-8.4,2.2-15,8.8-17.2,17.2h-30c-2.7-10.4-12.2-18.1-23.4-18.1c-13.4,0-24.3,10.9-24.3,24.3
			c0,11.3,7.7,20.7,18.1,23.4v29.8c-10.4,2.7-18.1,12.2-18.1,23.4c0,11.3,7.7,20.7,18.1,23.4v29.8c-8.4,2.2-15,8.8-17.2,17.2h-29.8
			c-2.2-8.4-8.8-15-17.2-17.2V472c10.4-2.7,18.1-12.2,18.1-23.4c0-13.4-10.9-24.3-24.3-24.3c-11.3,0-20.7,7.7-23.4,18.1h-30
			C86,432,76.5,424.3,65.3,424.3c-13.4,0-24.3,10.9-24.3,24.3s10.9,24.3,24.3,24.3c11.3,0,20.7-7.7,23.4-18.1h30
			c2.2,8.4,8.8,15,17.2,17.2v29.8c-10.4,2.7-18.1,12.2-18.1,23.4c0,11.3,7.7,20.7,18.1,23.4v29.8c-10.4,2.7-18.1,12.2-18.1,23.4
			c0,13.4,10.9,24.3,24.3,24.3s24.3-10.9,24.3-24.3c0-11.3-7.7-20.7-18.1-23.4v-29.8c8.4-2.2,15-8.8,17.2-17.2h29.8
			c2.7,10.4,12.2,18.1,23.4,18.1c13.4,0,24.3-10.9,24.3-24.3c0-11.3-7.7-20.7-18.1-23.4V472c8.4-2.2,15-8.8,17.2-17.2h30
			c2.7,10.4,12.2,18.1,23.4,18.1c13.4,0,24.3-10.9,24.3-24.3s-10.9-24.3-24.3-24.3c-11.3,0-20.7,7.7-23.4,18.1h-30
			c-2.2-8.4-8.8-15-17.2-17.2v-29.8C233.3,393.2,239.9,386.6,242.1,378.2z"/>
		<path id="XMLID_602_" class="st0" d="M361.2,275.8h78.2c22.5,0,41,5.7,55.5,17.2c15.9,12.6,23.9,29.8,23.9,51.7V366
			c0,21.9-7.9,39.4-23.6,52.6c-14.5,12.3-33.1,18.5-55.8,18.5h-15.6v81.3h-62.5V275.8H361.2z M423.7,334.5v44.3h15
			c14.5,0,21.7-7.4,21.7-22.3c0-14.7-7.2-22-21.7-22H423.7z"/>
		<path id="XMLID_600_" class="st0" d="M685.6,275.8v58.7h-90.3v30.9h49.4v58.1h-49.4v35.1h90.3v60H532.8V275.8H685.6z"/>
		<path id="XMLID_598_" class="st0" d="M859.1,275.8v58.7h-47.8v184.1H749V334.5h-47.8v-58.7H859.1z"/>
		<g id="XMLID_580_">
			<path id="XMLID_596_" class="st0" d="M397.6,557.3v-12h-23.9v23.9h23.9v12h-23.9v23.9h23.9v-12h12V617h-47.8v-83.7h47.8v23.9
				L397.6,557.3L397.6,557.3z"/>
			<path id="XMLID_594_" class="st0" d="M457.4,617.1v-47.8h-23.9v47.8h-12v-59.8h47.8v59.8H457.4z"/>
			<path id="XMLID_591_" class="st0" d="M481.3,605.1v-47.8h47.8V629h-47.8v-11.8h35.9v-12h-35.9V605.1z M493.3,569.2v23.9h23.9
				v-23.9H493.3z"/>
			<path id="XMLID_589_" class="st0" d="M577,557.3v-12h-23.9v59.8H577v-12h12V617h-47.8v-83.7H589v23.9L577,557.3L577,557.3z"/>
			<path id="XMLID_586_" class="st0" d="M600.9,617.1v-59.8h47.8v59.8H600.9z M612.9,605.1h23.9v-35.9h-23.9V605.1z"/>
			<path id="XMLID_584_" class="st0" d="M696.6,617.1v-47.8h-23.9v47.8h-12v-59.8h83.7v59.8h-12v-47.8h-23.9v47.8H696.6z"/>
			<path id="XMLID_581_" class="st0" d="M768.4,617.1v11.8h-12v-71.7h47.8V617h-35.8V617.1z M768.4,605.1h23.9v-35.9h-23.9V605.1z"
				/>
		</g>
		<g id="XMLID_571_">
			<path id="XMLID_578_" class="st0" d="M852.2,517.7h-33.5v-4.8h28.7v-9.6h-28.7v-4.8h33.5V517.7z"/>
			<path id="XMLID_576_" class="st0" d="M828.2,479.4h-4.8v9.6h9.6v-9.6h4.8v9.6h14.4v4.8h-33.5v-19.1h9.6L828.2,479.4L828.2,479.4z
				"/>
			<path id="XMLID_574_" class="st0" d="M828.2,455.5h-4.8v9.6h9.6v-9.6h4.8v9.6h9.6v-9.6h-4.8v-4.8h9.6v19.1h-33.5v-19.1h9.6
				L828.2,455.5L828.2,455.5z"/>
			<path id="XMLID_572_" class="st0" d="M837.8,445.9h-19.1v-19.1h9.6v4.8h-4.8v9.6h9.6v-14.4h19.1v19.1h-9.6v-4.8h4.8v-9.6h-9.6
				V445.9z"/>
		</g>
	</g>
</g>
</svg>
