<svg id="Logo_JACEE" data-name="Logo JACEE" xmlns="http://www.w3.org/2000/svg" width="227.913" height="78.622" viewBox="0 0 227.913 78.622">
  <g id="Group_25" data-name="Group 25" transform="translate(30.154)">
    <g id="Group_24" data-name="Group 24">
      <ellipse id="Ellipse_5" data-name="Ellipse 5" cx="13.245" cy="13.027" rx="13.245" ry="13.027" fill="#fff"/>
      <path id="Path_9" data-name="Path 9" d="M410.8,473.082s16.336-4.808,26.874,4.041c0,0-11.472-25.459-23.667-28.339C409.98,447.834,410.8,473.082,410.8,473.082Z" transform="translate(-395.349 -447.209)" fill="#fff"/>
    </g>
  </g>
  <g id="Group_27" data-name="Group 27" transform="translate(43.015 48.803)">
    <g id="Group_26" data-name="Group 26">
      <ellipse id="Ellipse_6" data-name="Ellipse 6" cx="13.245" cy="13.027" rx="13.245" ry="13.027" transform="translate(16.165)" fill="#fff"/>
      <path id="Path_10" data-name="Path 10" d="M424.378,522.816s-3.935,16.319-17,20.87c0,0,28.153,2.958,36.787-5.989C447.018,534.744,424.378,522.816,424.378,522.816Z" transform="translate(-407.382 -514.335)" fill="#fff"/>
    </g>
  </g>
  <g id="Group_29" data-name="Group 29" transform="translate(0 28.533)">
    <g id="Group_28" data-name="Group 28">
      <ellipse id="Ellipse_7" data-name="Ellipse 7" cx="13.245" cy="13.027" rx="13.245" ry="13.027" transform="translate(0.043 20.186)" fill="#fff"/>
      <path id="Path_11" data-name="Path 11" d="M373.722,509.526s-12.4-11.511-9.878-24.913c0,0-16.682,22.5-13.12,34.33C351.9,522.846,373.722,509.526,373.722,509.526Z" transform="translate(-350.225 -484.613)" fill="#fff"/>
    </g>
  </g>
  <ellipse id="Ellipse_8" data-name="Ellipse 8" cx="5.347" cy="5.259" rx="5.347" ry="5.259" transform="translate(37.642 39.619)" fill="#fff"/>
  <g id="Group_30" data-name="Group 30" transform="translate(107.51 17.13)">
    <path id="Path_12" data-name="Path 12" d="M500.939,477.712v31.809a6.17,6.17,0,0,1-.393,2.237,5.233,5.233,0,0,1-1.109,1.767,4.965,4.965,0,0,1-1.727,1.159,5.924,5.924,0,0,1-2.274.415,4.911,4.911,0,0,1-1.3-.152,4.207,4.207,0,0,1-1.052-.455l.111-.22c.076-.148.16-.217.253-.208a1.382,1.382,0,0,1,.393.125q.253.109.646.235a3.189,3.189,0,0,0,.954.124,4.544,4.544,0,0,0,3.608-1.395,5.314,5.314,0,0,0,1.221-3.631V477.712Zm.6-7.3a.85.85,0,0,1-.3.637.958.958,0,0,1-.665.281.939.939,0,0,1-.683-.281.871.871,0,0,1-.284-.637.908.908,0,0,1,.284-.671.939.939,0,0,1,.683-.281.958.958,0,0,1,.665.281A.884.884,0,0,1,501.542,470.413Z" transform="translate(-493.08 -469.461)" fill="#fff"/>
    <path id="Path_13" data-name="Path 13" d="M516.1,484.146a15.941,15.941,0,0,1,4.183-3.2,10.894,10.894,0,0,1,5.025-1.1,9.114,9.114,0,0,1,3.635.662,6.6,6.6,0,0,1,2.541,1.906,8.008,8.008,0,0,1,1.489,3.024,15.56,15.56,0,0,1,.477,4.016V507.34h-.113q-.393,0-.393-.442l-.168-4.418a30.5,30.5,0,0,1-2.359,2.2,14.236,14.236,0,0,1-2.5,1.67,12.611,12.611,0,0,1-2.836,1.063,14.16,14.16,0,0,1-3.369.373,8.815,8.815,0,0,1-2.5-.373,6.561,6.561,0,0,1-2.275-1.188,6.268,6.268,0,0,1-1.656-2.1,6.916,6.916,0,0,1-.646-3.134,5.284,5.284,0,0,1,1.1-3.271,8.488,8.488,0,0,1,3.326-2.471,23.325,23.325,0,0,1,5.643-1.615,55.4,55.4,0,0,1,8.071-.7v-3.479a14.014,14.014,0,0,0-.478-3.81,8.008,8.008,0,0,0-1.4-2.844,6.094,6.094,0,0,0-2.33-1.781,8,8,0,0,0-3.256-.621,10.6,10.6,0,0,0-2.639.3,11.674,11.674,0,0,0-2.106.746,9.181,9.181,0,0,0-1.614.966q-.687.525-1.194.966t-.814.745c-.205.2-.355.3-.449.3a.463.463,0,0,1-.281-.166Zm16.676,9.333q-8.845.277-13.153,2.167t-4.309,5.343a6.567,6.567,0,0,0,.547,2.8,5.559,5.559,0,0,0,1.446,1.933,5.989,5.989,0,0,0,2.049,1.132,7.6,7.6,0,0,0,2.359.373,12.975,12.975,0,0,0,3.509-.442,13.293,13.293,0,0,0,2.9-1.187,14.979,14.979,0,0,0,2.471-1.726q1.136-.981,2.176-2.058Z" transform="translate(-498.414 -472.029)" fill="#fff"/>
    <path id="Path_14" data-name="Path 14" d="M570.324,482.821a.327.327,0,0,1-.225.11q-.168,0-.631-.4a7.432,7.432,0,0,0-1.348-.87,12.3,12.3,0,0,0-2.218-.869,11.258,11.258,0,0,0-3.214-.4,11.606,11.606,0,0,0-4.772.939,9.788,9.788,0,0,0-3.566,2.678,12.03,12.03,0,0,0-2.231,4.224,18.734,18.734,0,0,0-.772,5.577,19,19,0,0,0,.772,5.674,11.882,11.882,0,0,0,2.2,4.169,9.4,9.4,0,0,0,3.44,2.581,10.987,10.987,0,0,0,4.476.883,11.986,11.986,0,0,0,3.707-.5,11.744,11.744,0,0,0,2.5-1.1,8.694,8.694,0,0,0,1.488-1.1c.336-.332.561-.5.674-.5a.33.33,0,0,1,.225.11l.112.11a5.675,5.675,0,0,1-1.236,1.23,10.1,10.1,0,0,1-1.937,1.132,13.761,13.761,0,0,1-2.526.842,13.081,13.081,0,0,1-3.005.331,11.8,11.8,0,0,1-4.8-.939,9.911,9.911,0,0,1-3.635-2.72,12.5,12.5,0,0,1-2.316-4.348,19.306,19.306,0,0,1-.814-5.854,18.937,18.937,0,0,1,.814-5.729,12.551,12.551,0,0,1,2.358-4.4,10.592,10.592,0,0,1,3.776-2.83,12.194,12.194,0,0,1,5.067-1.008,11.834,11.834,0,0,1,4.449.786,11.516,11.516,0,0,1,3.355,2.03Z" transform="translate(-507.329 -472.029)" fill="#fff"/>
    <path id="Path_15" data-name="Path 15" d="M606.439,504.136a6.432,6.432,0,0,1-1.419,1.2,12.922,12.922,0,0,1-2.218,1.146,16.851,16.851,0,0,1-2.792.856,14.581,14.581,0,0,1-3.116.331,12.568,12.568,0,0,1-5.081-.981,10.27,10.27,0,0,1-3.8-2.83,12.979,12.979,0,0,1-2.4-4.528,20.227,20.227,0,0,1-.841-6.074,17.33,17.33,0,0,1,.814-5.453,12.119,12.119,0,0,1,2.358-4.239,10.617,10.617,0,0,1,3.776-2.748,12.492,12.492,0,0,1,5.067-.98,10.923,10.923,0,0,1,4.07.759,9.26,9.26,0,0,1,3.327,2.25,10.694,10.694,0,0,1,2.231,3.659,14.129,14.129,0,0,1,.814,4.984.236.236,0,0,1-.1.206.407.407,0,0,1-.239.069H585.5c-.02.258-.033.506-.043.745s-.014.488-.014.747a19.8,19.8,0,0,0,.814,5.95,12.244,12.244,0,0,0,2.316,4.335,9.8,9.8,0,0,0,3.621,2.664,11.789,11.789,0,0,0,4.7.911,14.154,14.154,0,0,0,3.986-.5,14.652,14.652,0,0,0,2.807-1.1,10.458,10.458,0,0,0,1.712-1.1,2.4,2.4,0,0,1,.7-.5.327.327,0,0,1,.224.11Zm.168-12.866a13.254,13.254,0,0,0-.757-4.652,9.755,9.755,0,0,0-2.092-3.41,8.9,8.9,0,0,0-3.13-2.1,10.284,10.284,0,0,0-3.846-.718,12.162,12.162,0,0,0-4.45.773,9.787,9.787,0,0,0-3.411,2.21,10.845,10.845,0,0,0-2.288,3.438,15.258,15.258,0,0,0-1.109,4.459Z" transform="translate(-515.765 -472.029)" fill="#fff"/>
    <path id="Path_16" data-name="Path 16" d="M644.9,504.136a6.433,6.433,0,0,1-1.419,1.2,12.922,12.922,0,0,1-2.218,1.146,16.862,16.862,0,0,1-2.793.856,14.575,14.575,0,0,1-3.116.331,12.569,12.569,0,0,1-5.081-.981,10.268,10.268,0,0,1-3.8-2.83,12.966,12.966,0,0,1-2.4-4.528,20.226,20.226,0,0,1-.842-6.074,17.33,17.33,0,0,1,.814-5.453,12.107,12.107,0,0,1,2.358-4.239,10.614,10.614,0,0,1,3.776-2.748,12.5,12.5,0,0,1,5.067-.98,10.924,10.924,0,0,1,4.071.759,9.261,9.261,0,0,1,3.327,2.25,10.694,10.694,0,0,1,2.231,3.659,14.129,14.129,0,0,1,.814,4.984.236.236,0,0,1-.1.206.407.407,0,0,1-.239.069H623.955c-.02.258-.033.506-.044.745s-.014.488-.014.747a19.8,19.8,0,0,0,.814,5.95,12.219,12.219,0,0,0,2.316,4.335,9.8,9.8,0,0,0,3.621,2.664,11.786,11.786,0,0,0,4.7.911,14.149,14.149,0,0,0,3.986-.5,14.612,14.612,0,0,0,2.807-1.1,10.436,10.436,0,0,0,1.713-1.1,2.4,2.4,0,0,1,.7-.5.327.327,0,0,1,.224.11Zm.168-12.866a13.237,13.237,0,0,0-.758-4.652,9.743,9.743,0,0,0-2.091-3.41,8.906,8.906,0,0,0-3.13-2.1,10.285,10.285,0,0,0-3.846-.718,12.16,12.16,0,0,0-4.449.773,9.8,9.8,0,0,0-3.411,2.21,10.855,10.855,0,0,0-2.287,3.438,15.258,15.258,0,0,0-1.109,4.459Z" transform="translate(-525.28 -472.029)" fill="#fff"/>
  </g>
</svg>
